<svg width="2291" height="97" viewBox="0 0 2291 97" fill="none" xmlns="http://www.w3.org/2000/svg">
<path d="M0 64.9327L76.3667 38.1764C152.733 11.821 257.767 5.80823 410.5 11.5202C563.233 16.8314 763.667 32.8653 916.4 59.6216C1069.13 85.977 1221.87 75.9559 1374.6 59.6216C1527.33 43.8885 1680.07 21.8421 1832.8 11.5204C1985.53 0.797853 2138.27 0.797852 2214.63 0.797852H2291V97.0002H2214.63C2138.27 97.0002 1985.53 97.0002 1832.8 97.0002C1680.07 97.0002 1527.33 97.0002 1374.6 97.0002C1221.87 97.0002 1069.13 97.0002 916.4 97.0002C763.667 97.0002 610.933 97.0002 458.2 97.0002C305.467 97.0002 152.733 97.0002 76.3667 97.0002H0V64.9327Z" fill="#2A2C21"/>
</svg>
