<svg width="1440" height="154" viewBox="0 0 1440 154" fill="none" xmlns="http://www.w3.org/2000/svg">
<rect width="1440" height="154" fill="white"/>
<path d="M0 77L40 71.8506C80 66.8938 160 56.3063 240 56.4506C320 56.3063 400 66.8938 480 64.1506C560 61.6 640 46.2 720 41.0506C800 36.0938 880 40.9063 960 38.5C1040 36.0938 1120 25.5063 1200 38.5C1280 51.4938 1360 87.1063 1400 105.249L1440 123.2V0H1400C1360 0 1280 0 1200 0C1120 0 1040 0 960 0C880 0 800 0 720 0C640 0 560 0 480 0C400 0 320 0 240 0C160 0 80 0 40 0H0V77Z" fill="#273036"/>
</svg>
